<?xml version="1.0" ?><svg id="Layer_1" style="enable-background:new 0 0 65 65;" version="1.1" viewBox="0 0 65 65" xml:space="preserve" xmlns="http://www.w3.org/2000/svg" xmlns:xlink="http://www.w3.org/1999/xlink"><style type="text/css">
	.st0{fill:#465665;}
	.st1{fill:#DFE7ED;}
	.st2{fill:#EDF3F7;}
	.st3{fill:#ABDAF6;}
	.st4{fill:#F04031;}
	.st5{fill:#FEDBBD;}
	.st6{fill:#F9B795;}
	.st7{fill:#2F3847;}
	.st8{fill:#BCD861;}
	.st9{fill:#4D2B08;}
	.st10{fill:#754E2F;}
</style><g><g><g><path class="st4" d="M45.6,41.4h-4V18.5c0-5-4.1-9.1-9.1-9.1s-9.1,4.1-9.1,9.1v22.9h-4V18.5c0-7.2,5.9-13.1,13.1-13.1     s13.1,5.9,13.1,13.1V41.4z"/></g></g><g><g><g><g><path class="st5" d="M23.8,42v15.6c0,1.1,0.9,2,2,2s2-0.9,2-2V42H23.8z"/></g></g><g><g><path class="st5" d="M37.2,42v15.6c0,1.1,0.9,2,2,2s2-0.9,2-2V42H37.2z"/></g></g></g></g><g><g><path class="st0" d="M47.2,43.4H17.8c-1.1,0-2-0.9-2-2s0.9-2,2-2h29.4c1.1,0,2,0.9,2,2S48.3,43.4,47.2,43.4z"/></g></g></g></svg>